<svg xmlns="http://www.w3.org/2000/svg" width="192" height="192" fill="none" viewBox="0 0 192 192"><rect width="24" height="8" x="40" y="184" fill="#FFAF00"/><rect width="24" height="8" fill="#FFAF00" transform="matrix(-1 0 0 1 152 184)"/><rect width="16" height="8" x="48" y="176" fill="#FFAF00"/><rect width="16" height="8" fill="#FFAF00" transform="matrix(-1 0 0 1 144 176)"/><rect width="24" height="8" x="48" y="168" fill="#FFAF00"/><rect width="24" height="8" fill="#FFAF00" transform="matrix(-1 0 0 1 144 168)"/><rect width="16" height="8" x="56" y="160" fill="#FFAF00"/><rect width="16" height="8" fill="#FFAF00" transform="matrix(-1 0 0 1 136 160)"/><rect width="24" height="8" x="56" y="152" fill="#FFAF00"/><rect width="24" height="8" fill="#FFAF00" transform="matrix(-1 0 0 1 136 152)"/><rect width="64" height="8" x="64" y="144" fill="#FFAF00"/><rect width="64" height="8" x="64" y="136" fill="#FF8205"/><rect width="80" height="8" x="56" y="128" fill="#FA500F"/><rect width="48" height="8" fill="#FA500F" transform="matrix(1 0 0 -1 72 88)"/><rect width="16" height="64" fill="#FFAF00" transform="matrix(1 0 0 -1 88 80)"/><rect width="8" height="16" fill="#526989" transform="matrix(1 0 0 -1 92 16)"/><rect width="8" height="8" fill="#0082E6" transform="matrix(1 0 0 -1 92 8)"/><rect width="8" height="8" fill="#fff" transform="matrix(1 0 0 -1 100 8)"/><rect width="8" height="8" fill="#E92700" transform="matrix(1 0 0 -1 108 8)"/><rect width="8" height="8" x="76" y="88" fill="#FF8205"/><rect width="8" height="8" x="88" y="72" fill="#FF8205"/><rect width="8" height="8" x="88" y="56" fill="#FF8205"/><rect width="8" height="8" x="88" y="40" fill="#FF8205"/><rect width="8" height="8" x="88" y="24" fill="#FF8205"/><rect width="8" height="8" x="96" y="64" fill="#FF8205"/><rect width="8" height="8" x="96" y="48" fill="#FF8205"/><rect width="8" height="8" x="72" y="152" fill="#FF8205"/><rect width="8" height="8" x="64" y="168" fill="#FF8205"/><rect width="8" height="8" x="56" y="184" fill="#FF8205"/><rect width="8" height="8" x="112" y="152" fill="#FF8205"/><rect width="8" height="8" x="120" y="168" fill="#FF8205"/><rect width="8" height="8" x="128" y="184" fill="#FF8205"/><rect width="8" height="8" x="96" y="32" fill="#FF8205"/><rect width="8" height="8" x="96" y="16" fill="#FF8205"/><rect width="8" height="8" x="116" y="120" fill="#FF8205"/><rect width="8" height="8" x="108" y="88" fill="#FF8205"/><rect width="8" height="8" x="92" y="112" fill="#FFAF00"/><rect width="8" height="8" x="76" y="112" fill="#FFAF00"/><rect width="8" height="8" x="108" y="112" fill="#FFAF00"/><rect width="16" height="8" x="76" y="96" fill="#FFAF00"/><rect width="24" height="8" x="68" y="120" fill="#FF8205"/><rect width="16" height="8" x="100" y="120" fill="#FF8205"/><rect width="40" height="8" x="76" y="104" fill="#FF8205"/><rect width="16" height="8" x="100" y="96" fill="#FFAF00"/><script/></svg>